<?xml version="1.0" ?><svg xmlns="http://www.w3.org/2000/svg" xmlns:xlink="http://www.w3.org/1999/xlink" version="1.0" viewBox="0 0 48 48" enable-background="new 0 0 48 48" xml:space="preserve"><g id="Layer_1"/><g id="_x31_1_x5F_Chart"><path d="M41,35H12V10c0-1.654-1.346-3-3-3s-3,1.346-3,3v1H5c-0.552,0-1,0.448-1,1s0.448,1,1,1h1v2H5c-0.552,0-1,0.448-1,1   s0.448,1,1,1h1v2H5c-0.552,0-1,0.448-1,1s0.448,1,1,1h1v2H5c-0.552,0-1,0.448-1,1s0.448,1,1,1h1v2H5c-0.552,0-1,0.447-1,1   s0.448,1,1,1h1v2H5c-0.552,0-1,0.447-1,1s0.448,1,1,1h1v5c0,1.654,1.346,3,3,3h32c1.654,0,3-1.346,3-3S42.654,35,41,35z M41,39H9   c-0.551,0-1-0.448-1-1V10c0-0.551,0.449-1,1-1s1,0.449,1,1v26c0,0.553,0.448,1,1,1h30c0.552,0,1,0.448,1,1S41.552,39,41,39z M41,11   c-1.654,0-3,1.346-3,3v2v4v4v4v2c0,1.654,1.346,3,3,3s3-1.346,3-3v-2v-4v-4v-4v-2C44,12.346,42.654,11,41,11z M42,19h-2v-2h2V19z    M42,23h-2v-2h2V23z M40,25h2v2h-2V25z M40,14c0-0.551,0.448-1,1-1s1,0.449,1,1v1h-2V14z M42,30c0,0.552-0.448,1-1,1s-1-0.448-1-1   v-1h2V30z M33,33c1.654,0,3-1.346,3-3v-2v-4v-2c0-1.654-1.346-3-3-3s-3,1.346-3,3v2v4v2C30,31.654,31.346,33,33,33z M34,27h-2v-2h2   V27z M34,30c0,0.552-0.448,1-1,1s-1-0.448-1-1v-1h2V30z M32,22c0-0.551,0.448-1,1-1s1,0.449,1,1v1h-2V22z M17,33   c1.654,0,3-1.346,3-3v-2v-2c0-1.654-1.346-3-3-3s-3,1.346-3,3v2v2C14,31.654,15.346,33,17,33z M18,30c0,0.552-0.449,1-1,1   s-1-0.448-1-1v-1h2V30z M16,26c0-0.552,0.449-1,1-1s1,0.448,1,1v1h-2V26z M25,33c1.654,0,3-1.346,3-3v-2v-2c0-1.654-1.346-3-3-3   s-3,1.346-3,3v2v2C22,31.654,23.346,33,25,33z M26,30c0,0.552-0.448,1-1,1s-1-0.448-1-1v-1h2V30z M24,26c0-0.552,0.448-1,1-1   s1,0.448,1,1v1h-2V26z"/></g></svg>